<svg width="15" height="15" viewBox="0 0 15 15" fill="none" xmlns="http://www.w3.org/2000/svg">
<g clip-path="url(#clip0_1889_13231)">
<path d="M14.6844 3.8779C14.5975 3.5665 14.4317 3.28279 14.2031 3.05418C13.9745 2.82557 13.6908 2.65981 13.3794 2.5729C12.2106 2.25977 7.50688 2.25977 7.50688 2.25977C7.50688 2.25977 2.815 2.25352 1.63438 2.5729C1.32298 2.65981 1.03926 2.82557 0.810657 3.05418C0.58205 3.28279 0.416282 3.5665 0.329376 3.8779C0.107826 5.07447 -0.00139894 6.28913 0.00312572 7.50602C-0.000543575 8.71833 0.108678 9.92835 0.329376 11.1204C0.416282 11.4318 0.58205 11.7155 0.810657 11.9441C1.03926 12.1727 1.32298 12.3385 1.63438 12.4254C2.80188 12.7392 7.50688 12.7391 7.50688 12.7391C7.50688 12.7391 12.1981 12.7392 13.3794 12.4254C13.6908 12.3385 13.9745 12.1727 14.2031 11.9441C14.4317 11.7155 14.5975 11.4318 14.6844 11.1204C14.9005 9.92791 15.0051 8.7179 14.9969 7.50602C15.0059 6.28956 14.9013 5.0749 14.6844 3.8779ZM6.00563 9.7504V5.25477L9.92063 7.50602L6.00563 9.7504Z" fill="#475569"/>
</g>
<defs>
<clipPath id="clip0_1889_13231">
<rect width="15" height="15" fill="white"/>
</clipPath>
</defs>
</svg>
